<svg width="152" height="37" viewBox="0 0 152 37" fill="none" xmlns="http://www.w3.org/2000/svg">
<path d="M20.8156 36.6931H16.0607C15.5374 36.5067 15.2794 36.127 15.1556 35.596C14.8764 34.3898 14.5546 33.1907 14.2718 31.9811C14.2153 31.7385 14.0951 31.6294 13.8723 31.5451C13.2926 31.3235 12.7163 31.0809 12.1507 30.8242C11.935 30.7257 11.7724 30.7187 11.5603 30.8488C10.6835 31.3903 9.79619 31.9108 8.90884 32.4382C8.20886 32.8532 7.77403 32.8039 7.20485 32.2378C6.29629 31.3341 5.38772 30.4339 4.47916 29.5266C3.92059 28.971 3.86404 28.5315 4.26706 27.8633C4.80795 26.9631 5.34884 26.0594 5.90034 25.1662C6.00287 24.9975 6.01347 24.8638 5.92862 24.6775C5.65641 24.0797 5.40187 23.4748 5.165 22.8665C5.08369 22.6555 4.96703 22.55 4.74431 22.4973C3.49636 22.2019 2.25195 21.8924 1.01108 21.583C0.289886 21.4037 0.00353526 21.045 0 20.3136C0 19.0125 0 17.7114 0 16.4103C0 15.6508 0.279287 15.2956 1.01816 15.1128C2.26257 14.8033 3.50697 14.4939 4.75138 14.195C4.95643 14.1457 5.07663 14.0578 5.15087 13.8504C5.34531 13.3264 5.55742 12.806 5.78721 12.2961C5.87206 12.1097 5.86146 11.9761 5.75893 11.8038C5.13673 10.784 4.52159 9.76075 3.90645 8.73746C3.50697 8.06934 3.56 7.61924 4.1115 7.07067C5.01653 6.16695 5.92509 5.26322 6.83718 4.3595C7.41697 3.78632 7.83412 3.73709 8.53764 4.15203C9.52398 4.73927 10.5068 5.33707 11.5037 5.91025C11.631 5.98409 11.8466 5.98761 11.9881 5.93134C12.635 5.68168 13.2643 5.38982 13.9112 5.13663C14.1269 5.05224 14.2223 4.93268 14.2754 4.71114C14.5723 3.46984 14.8834 2.23206 15.1945 0.994274C15.3678 0.294504 15.7319 0.00263733 16.4425 0.00263733C17.7753 -0.000879108 19.1081 -0.000879108 20.4409 0.00263733C21.1514 0.00263733 21.5191 0.294506 21.6923 0.99076C22.007 2.23909 22.3181 3.49094 22.6186 4.74279C22.6681 4.95378 22.7706 5.05927 22.9721 5.13663C23.5519 5.36168 24.1281 5.59728 24.6938 5.85398C24.913 5.95244 25.0756 5.95948 25.2877 5.82937C26.2069 5.26322 27.1366 4.71818 28.0629 4.16961C28.7911 3.73709 29.1977 3.78632 29.7916 4.37357C30.6931 5.26674 31.591 6.16343 32.489 7.06012C33.0688 7.63682 33.1218 8.05527 32.7082 8.74801C32.1425 9.69042 31.5663 10.6258 31.0148 11.5752C30.9406 11.7018 30.937 11.9163 30.9901 12.057C31.2198 12.6583 31.4921 13.242 31.7254 13.8398C31.8102 14.0578 31.9304 14.1493 32.1531 14.202C33.3657 14.4903 34.5713 14.8033 35.7839 15.0846C36.3141 15.2077 36.6995 15.4644 36.8869 15.9848V20.7144C36.6995 21.2349 36.3177 21.4951 35.7839 21.6146C34.5713 21.8924 33.3657 22.2089 32.1531 22.4973C31.934 22.55 31.8102 22.6414 31.7254 22.8595C31.5027 23.4362 31.2623 24.0093 31.0042 24.572C30.9123 24.7689 30.9264 24.9131 31.0395 25.0959C31.6087 26.0207 32.1673 26.9526 32.7259 27.8844C33.1183 28.542 33.0652 28.971 32.5173 29.5161C31.6052 30.4303 30.686 31.3411 29.7704 32.2519C29.2189 32.7969 28.7699 32.8496 28.0947 32.4488C27.179 31.9037 26.2599 31.3622 25.3513 30.8066C25.1675 30.6941 25.0261 30.687 24.8281 30.775C24.22 31.0528 23.6014 31.313 22.9792 31.5556C22.7635 31.64 22.6681 31.7596 22.615 31.9811C22.3287 33.1872 22.0105 34.3863 21.7312 35.5925C21.6075 36.1234 21.3494 36.5032 20.8262 36.6896L20.8156 36.6931ZM18.4293 7.08473C12.2002 7.09528 7.10587 12.1695 7.11647 18.3619C7.12708 24.5579 12.2285 29.6251 18.4505 29.6145C24.6796 29.604 29.7739 24.5298 29.7633 18.3373C29.7527 12.1414 24.6513 7.07419 18.4293 7.08473Z" fill="#D10165"/>
<path d="M22.0957 14.2969L26.1754 18.3548L22.0957 22.4128" stroke="#D10165" stroke-miterlimit="10" stroke-linecap="round"/>
<path d="M14.7774 22.3986L10.6978 18.3407L14.7774 14.2827" stroke="#D10165" stroke-miterlimit="10" stroke-linecap="round"/>
<path d="M20.37 14.3145L16.5024 22.3987" stroke="#D10165" stroke-miterlimit="10" stroke-linecap="round"/>
<path d="M52.1601 28.9998H47V7.00488H52.1601V28.9998Z" fill="#414242"/>
<path d="M78.7806 7.00488V28.9998H76.1094C75.7148 28.9998 75.3809 28.9395 75.1128 28.8086C74.8447 28.6828 74.5816 28.4665 74.3186 28.1545L63.8921 15.036C63.9325 15.4285 63.9578 15.8109 63.9781 16.1783C63.9932 16.5456 63.9983 16.8928 63.9983 17.2098V28.9998H59.4756V7.00488H62.1771C62.3997 7.00488 62.5869 7.01495 62.7386 7.03507C62.8904 7.0552 63.027 7.09546 63.1484 7.15082C63.2698 7.20617 63.3862 7.28668 63.4975 7.38228C63.6088 7.48292 63.7352 7.61879 63.8769 7.78988L74.3944 20.9989C74.3439 20.5762 74.3084 20.1686 74.2882 19.7661C74.268 19.3686 74.2579 18.9962 74.2579 18.644V7.00488H78.7806Z" fill="#414242"/>
<path d="M106.16 17.9948C106.16 19.5849 105.886 21.0543 105.335 22.3978C104.783 23.7414 104.009 24.9038 103.008 25.885C102.006 26.8663 100.797 27.6311 99.3856 28.1796C97.9741 28.7281 96.4059 28.9998 94.6858 28.9998H86.0957V7.00488H94.6858C96.4059 7.00488 97.9741 7.28164 99.3856 7.83516C100.797 8.38869 102.001 9.15355 103.008 10.1298C104.009 11.106 104.783 12.2684 105.335 13.6119C105.886 14.9555 106.16 16.4198 106.16 17.9948ZM100.908 17.9948C100.908 16.9079 100.767 15.9267 100.483 15.0511C100.2 14.1755 99.7903 13.4358 99.2591 12.8269C98.7279 12.2181 98.0804 11.7501 97.3114 11.423C96.5425 11.0959 95.6673 10.9299 94.6858 10.9299H91.2558V25.0749H94.6858C95.6673 25.0749 96.5425 24.9088 97.3114 24.5817C98.0804 24.2546 98.7279 23.7867 99.2591 23.1778C99.7903 22.5689 100.195 21.8242 100.483 20.9486C100.767 20.073 100.908 19.0868 100.908 17.9898V17.9948Z" fill="#414242"/>
<path d="M117.39 10.9299V16.0625H124.341V19.8365H117.39V25.0749H126.466V28.9998H112.23V7.00488H126.466V10.9299H117.39Z" fill="#414242"/>
<path d="M151.629 29H146.499C146.165 29 145.892 28.9195 145.69 28.7585C145.482 28.5974 145.316 28.4062 145.194 28.1848L140.762 20.4858C140.682 20.7072 140.59 20.8984 140.489 21.0595L136.361 28.1848C136.22 28.3861 136.053 28.5723 135.86 28.7434C135.668 28.9145 135.42 29 135.117 29H130.321L137.439 17.678L130.594 7.00504H135.724C136.058 7.00504 136.3 7.05033 136.462 7.13084C136.619 7.21638 136.756 7.36231 136.882 7.55856L141.284 14.9707C141.334 14.8399 141.39 14.7141 141.461 14.5933C141.526 14.4726 141.597 14.3468 141.678 14.2159L145.533 7.63404C145.675 7.41263 145.826 7.25161 145.978 7.15097C146.135 7.05033 146.332 7 146.565 7H151.482L144.547 17.4616L151.634 28.995L151.629 29Z" fill="#414242"/>
</svg>
