<svg width="38" height="40" viewBox="0 0 38 40" fill="none" xmlns="http://www.w3.org/2000/svg">
<path d="M24.8333 32.9863C21.9968 34.4476 19.1054 35 15.6466 35C7.17366 35 0 28.9588 0 19.3088C0 8.94603 7.38411 0 18.8492 0C27.8345 0 33.8736 6.13035 33.8736 14.5328C33.8736 22.071 29.5364 26.4995 24.6869 26.4995C22.619 26.4995 20.7158 25.1451 20.8622 22.071H20.6517C18.84 25.0382 16.4701 26.4995 13.3683 26.4995C10.2664 26.4995 7.79587 24.1382 7.79587 20.1642C7.79587 13.9269 12.8559 8.25102 20.0295 8.25102C22.253 8.25102 24.2111 8.70545 25.5562 9.31135L23.7993 18.4089C23.0216 22.2314 23.6438 23.9868 25.3457 24.0402C27.9809 24.0937 30.9181 20.6721 30.9181 14.8358C30.9181 7.5471 26.4254 2.3167 18.4191 2.3167C10.0193 2.3167 2.94632 8.80346 2.94632 19.0059C2.94632 27.3994 8.57362 32.5853 16.2139 32.5853C19.1603 32.5853 21.8961 31.9794 24.0098 30.821L24.8333 32.9863ZM21.9968 11.2627C21.4844 11.1113 20.606 10.9152 19.4165 10.9152C14.8689 10.9152 11.2088 15.0853 11.2088 19.9682C11.2088 22.178 12.3435 23.7907 14.6127 23.7907C17.6047 23.7907 20.3406 20.0662 20.9079 16.9565L21.9968 11.2716V11.2627Z" fill="#3B6DAA"/>
</svg>
