<svg width="38" height="38" viewBox="0 0 38 38" fill="none" xmlns="http://www.w3.org/2000/svg">
<g clip-path="url(#clip0_213_373)">
<path d="M30.8507 9.81758C32.3242 9.81758 33.5188 8.62305 33.5188 7.14951C33.5188 5.67598 32.3242 4.48145 30.8507 4.48145C29.3772 4.48145 28.1826 5.67598 28.1826 7.14951C28.1826 8.62305 29.3772 9.81758 30.8507 9.81758Z" stroke="#3B6DAA" stroke-width="2" stroke-miterlimit="10"/>
<path d="M19 28C14.0238 28 10 23.9665 10 19C10 14.0335 14.0335 10 19 10C23.9665 10 28 14.0335 28 19C28 23.9665 23.9665 28 19 28Z" stroke="#3B6DAA" stroke-width="2" stroke-miterlimit="10"/>
<path d="M18.9962 0.798828C24.9235 0.798828 25.6264 0.822793 27.967 0.92664C30.1318 1.0225 31.306 1.38996 32.0889 1.69351C33.1274 2.09292 33.8623 2.5802 34.6451 3.35506C35.42 4.12992 35.8993 4.87282 36.3067 5.91129C36.6102 6.69414 36.9697 7.86841 37.0735 10.0332C37.1774 12.3738 37.2014 13.0767 37.2014 19.004C37.2014 24.9313 37.1774 25.6342 37.0735 27.9748C36.9777 30.1396 36.6102 31.3139 36.3067 32.0967C35.9073 33.1352 35.42 33.8701 34.6451 34.6529C33.8703 35.4278 33.1274 35.9071 32.0889 36.3145C31.306 36.618 30.1318 36.9775 27.967 37.0814C25.6264 37.1852 24.9235 37.2092 18.9962 37.2092C13.0689 37.2092 12.366 37.1852 10.0254 37.0814C7.8606 36.9855 6.68633 36.618 5.90348 36.3145C4.86501 35.9151 4.1301 35.4278 3.34725 34.6529C2.57239 33.8781 2.0931 33.1352 1.6857 32.0967C1.38214 31.3139 1.02267 30.1396 0.918827 27.9748C0.81498 25.6342 0.791016 24.9313 0.791016 19.004C0.791016 13.0767 0.81498 12.3738 0.918827 10.0332C1.01469 7.86841 1.38214 6.69414 1.6857 5.91129C2.08511 4.87282 2.57239 4.13791 3.34725 3.35506C4.12211 2.5802 4.86501 2.10091 5.90348 1.69351C6.68633 1.38996 7.8606 1.03049 10.0254 0.92664C12.366 0.822793 13.0689 0.798828 18.9962 0.798828Z" stroke="#3B6DAA" stroke-width="2" stroke-miterlimit="10"/>
</g>
<defs>
<clipPath id="clip0_213_373">
<rect width="38" height="38" fill="white"/>
</clipPath>
</defs>
</svg>
