<svg width="260" height="260" viewBox="0 0 260 260" fill="none" xmlns="http://www.w3.org/2000/svg">
<g clip-path="url(#clip0_134_58)" filter="url(#filter0_ii_134_58)">
<path d="M83.6707 38.3722L108.442 29.6669C111.511 29.685 113.554 31.2012 115.176 33.7552C118.851 39.5599 122.733 45.25 126.433 51.0667C127.174 52.2337 128.001 52.5845 129.316 52.6186C132.744 52.7173 136.193 52.9328 139.612 53.2415C140.917 53.3623 141.777 53.1014 142.643 52.0317C146.214 47.5908 149.879 43.241 153.531 38.8544C156.414 35.4 158.77 34.8617 162.777 36.7843C169.173 39.8533 175.563 42.9039 181.966 45.9913C185.898 47.8781 187.002 50.0763 186.132 54.3128C184.971 60.017 183.816 65.7397 182.586 71.4265C182.363 72.4981 182.553 73.2172 183.338 74.0379C185.857 76.6699 188.296 79.3711 190.649 82.123C191.461 83.079 192.263 83.4178 193.52 83.2863C200.565 82.5483 207.618 81.8905 214.652 81.2392C218.757 80.8515 220.928 82.199 222.274 86.0291C224.668 92.8422 227.062 99.6554 229.456 106.469C230.854 110.446 230.053 112.817 226.54 115.127C220.627 119.026 214.713 122.925 208.78 126.768C207.802 127.401 207.338 128.082 207.333 129.304C207.284 132.404 207.137 135.517 206.878 138.608C206.779 139.739 207.08 140.42 207.931 141.134C213.05 145.335 218.137 149.567 223.225 153.8C226.536 156.567 227.088 159.021 225.224 162.903C222.172 169.293 219.102 175.688 216.013 182.091C214.048 186.154 211.965 187.175 207.536 186.29C201.317 185.021 195.097 183.69 188.848 182.514C188.05 182.36 186.92 182.736 186.286 183.29C183.376 185.782 180.634 188.462 177.73 190.972C176.762 191.809 176.484 192.61 176.616 193.867C177.353 200.911 178.01 207.962 178.667 215.013C179.04 218.958 177.686 221.171 174.009 222.484C167.072 224.943 160.129 227.383 153.179 229.805C149.477 231.105 147.024 230.25 144.841 226.921C140.904 220.96 136.98 214.975 133.111 208.969C132.465 207.955 131.736 207.59 130.544 207.554C127.11 207.437 123.674 207.259 120.255 206.95C118.932 206.836 118.072 207.096 117.206 208.166C113.459 212.814 109.618 217.37 105.803 221.938C102.804 225.536 100.596 226.023 96.4211 224.035C90.081 221.008 83.7528 217.957 77.4246 214.905C73.3429 212.947 72.2966 210.853 73.1766 206.468C74.3892 200.497 75.6699 194.544 76.7959 188.563C76.9497 187.764 76.5734 186.634 76.0383 185.995C73.7346 183.267 71.2422 180.708 68.9266 178.005C68.0834 177.019 67.2889 176.76 66.0315 176.892C59.1837 177.602 52.3274 178.17 45.4926 178.917C42.5034 179.243 40.0235 178.604 38.0897 176.222L29.3861 151.455C29.4045 148.387 30.9148 146.325 33.4758 144.722C39.2818 141.047 44.9797 137.183 50.7663 133.453C51.8111 132.776 52.2875 132.07 52.3283 130.773C52.4274 127.346 52.625 123.904 52.9341 120.485C53.0506 119.286 52.7116 118.557 51.7857 117.806C47.1186 114.006 42.4938 110.148 37.869 106.291C34.6146 103.566 34.1014 101.223 35.9531 97.3655C39.0223 90.908 42.1349 84.456 45.229 78.0104C47.0991 74.1466 49.3411 73.0484 53.5965 73.9114C59.3697 75.0892 65.1547 76.2422 70.9105 77.4882C72.0753 77.7409 72.8249 77.5188 73.6945 76.696C76.3511 74.1281 79.0953 71.6328 81.8903 69.2231C82.8584 68.3863 83.1357 67.5855 83.0043 66.3284C82.2765 59.4881 81.7275 52.6264 80.9629 45.7991C80.6304 42.7921 81.2759 40.3309 83.6588 38.3971L83.6707 38.3722ZM143.892 170.052C165.87 162.287 177.529 137.937 169.772 115.982C162.002 93.9901 137.674 82.348 115.715 90.1063C93.7373 97.871 82.0786 122.222 89.8354 144.177C97.6051 166.168 121.933 177.811 143.892 170.052Z" fill="#B6C6DE"/>
</g>
<defs>
<filter id="filter0_ii_134_58" x="-5" y="-2.74332" width="269.65" height="267.65" filterUnits="userSpaceOnUse" color-interpolation-filters="sRGB">
<feFlood flood-opacity="0" result="BackgroundImageFix"/>
<feBlend mode="normal" in="SourceGraphic" in2="BackgroundImageFix" result="shape"/>
<feColorMatrix in="SourceAlpha" type="matrix" values="0 0 0 0 0 0 0 0 0 0 0 0 0 0 0 0 0 0 127 0" result="hardAlpha"/>
<feOffset dx="5" dy="5"/>
<feGaussianBlur stdDeviation="6.5"/>
<feComposite in2="hardAlpha" operator="arithmetic" k2="-1" k3="1"/>
<feColorMatrix type="matrix" values="0 0 0 0 1 0 0 0 0 1 0 0 0 0 1 0 0 0 0.21 0"/>
<feBlend mode="normal" in2="shape" result="effect1_innerShadow_134_58"/>
<feColorMatrix in="SourceAlpha" type="matrix" values="0 0 0 0 0 0 0 0 0 0 0 0 0 0 0 0 0 0 127 0" result="hardAlpha"/>
<feOffset dx="-5" dy="-3"/>
<feGaussianBlur stdDeviation="4"/>
<feComposite in2="hardAlpha" operator="arithmetic" k2="-1" k3="1"/>
<feColorMatrix type="matrix" values="0 0 0 0 0.28284 0 0 0 0 0.472627 0 0 0 0 0.704167 0 0 0 1 0"/>
<feBlend mode="normal" in2="effect1_innerShadow_134_58" result="effect2_innerShadow_134_58"/>
</filter>
<clipPath id="clip0_134_58">
<rect width="203.65" height="203.65" fill="white" transform="translate(259.65 192.388) rotate(160.637)"/>
</clipPath>
</defs>
</svg>
