<svg width="385" height="386" viewBox="0 0 385 386" fill="none" xmlns="http://www.w3.org/2000/svg">
<g clip-path="url(#clip0_134_56)" filter="url(#filter0_ii_134_56)">
<path d="M18.5568 194.75L23.8305 150.481C26.1548 145.818 29.995 143.838 35.1012 143.278C46.6981 142.023 58.2762 140.365 69.91 139.08C72.2433 138.824 73.3967 137.826 74.4336 135.847C77.1497 130.696 80.0594 125.602 83.089 120.622C84.2495 118.724 84.4957 117.218 83.5134 115.098C79.4181 106.332 75.5321 97.4901 71.5802 88.6408C68.4735 81.6613 69.4164 77.6679 75.3457 73C84.8106 65.5487 94.2425 58.0935 103.74 50.6462C109.559 46.0653 113.735 46.0287 119.54 50.5257C127.365 56.565 135.222 62.6082 142.969 68.7384C144.435 69.8811 145.673 70.1288 147.511 69.5467C153.408 67.6788 159.35 65.9833 165.306 64.4563C167.37 63.9345 168.487 62.9659 169.227 60.9512C173.376 49.6621 177.652 38.4215 181.924 27.2139C184.406 20.6666 188.084 18.3675 194.929 19.1829C207.104 20.6334 219.28 22.0839 231.455 23.5344C238.563 24.3811 241.577 27.3772 242.469 34.46C243.985 46.3905 245.5 58.321 246.917 70.2397C247.15 72.2036 247.84 73.4206 249.699 74.3431C254.386 76.7374 259.021 79.2924 263.538 82.0002C265.188 82.9979 266.45 83.0482 268.177 82.2858C278.41 77.6299 288.668 73.0437 298.926 68.4576C305.622 65.4832 309.775 66.4787 314.297 72.2247C321.75 81.658 329.199 91.1243 336.645 100.623C341.366 106.66 341.364 110.599 336.7 116.686C330.111 125.214 323.427 133.698 316.957 142.34C316.125 143.443 315.853 145.447 316.223 146.826C317.842 153.127 319.875 159.311 321.527 165.617C322.077 167.719 323.09 168.741 325.105 169.481C336.391 173.63 347.63 177.906 358.868 182.182C365.158 184.567 367.519 188.287 366.768 194.873C365.322 207.286 363.844 219.694 362.333 232.098C361.545 238.714 358.406 241.812 351.698 242.648C339.667 244.186 327.607 245.687 315.559 247.089C313.53 247.314 312.429 248.151 311.481 249.941C308.732 255.088 305.888 260.19 302.859 265.17C301.694 267.101 301.448 268.607 302.43 270.727C306.709 279.916 310.778 289.179 314.884 298.414C318.124 305.677 317.213 309.407 311.058 314.282C301.7 321.679 292.313 329.039 282.926 336.399C276.886 341.154 272.911 341.182 266.887 336.558C258.696 330.242 250.581 323.834 242.308 317.641C241.206 316.809 239.202 316.537 237.827 316.874C231.945 318.343 226.181 320.226 220.328 321.732C218.193 322.279 217.205 323.296 216.464 325.311C212.421 336.279 208.155 347.153 204.177 358.129C202.438 362.929 199.608 366.23 194.53 367.394L150.27 362.122C145.607 359.797 143.596 355.952 143.069 350.849C141.814 339.25 140.19 327.674 138.836 316.063C138.586 313.964 137.867 312.71 135.921 311.677C130.771 308.96 125.674 306.083 120.695 303.053C118.954 301.978 117.589 301.949 115.753 302.798C106.467 307.066 97.1271 311.228 87.7872 315.389C81.1984 318.31 77.2425 317.338 72.7497 311.628C65.2054 302.117 57.7019 292.545 50.1945 283.005C45.7056 277.263 45.71 273.024 50.2103 267.184C56.3264 259.267 62.4135 251.314 68.6205 243.474C69.8774 241.888 70.1001 240.579 69.497 238.638C67.5717 232.667 65.8228 226.618 64.2423 220.554C63.6917 218.452 62.6787 217.431 60.6644 216.69C49.6948 212.679 38.8264 208.38 27.849 204.435C23.0173 202.692 19.7495 199.865 18.5858 194.787L18.5568 194.75ZM264.317 201.529C268.933 162.222 240.548 126.228 201.282 121.617C161.95 116.998 125.998 145.361 121.386 184.635C116.77 223.941 145.155 259.935 184.421 264.546C223.753 269.165 259.705 240.802 264.317 201.529Z" fill="#3B6DAA"/>
</g>
<defs>
<filter id="filter0_ii_134_56" x="-3.2561" y="-3.07738" width="393.256" height="394.256" filterUnits="userSpaceOnUse" color-interpolation-filters="sRGB">
<feFlood flood-opacity="0" result="BackgroundImageFix"/>
<feBlend mode="normal" in="SourceGraphic" in2="BackgroundImageFix" result="shape"/>
<feColorMatrix in="SourceAlpha" type="matrix" values="0 0 0 0 0 0 0 0 0 0 0 0 0 0 0 0 0 0 127 0" result="hardAlpha"/>
<feOffset dx="5" dy="6"/>
<feGaussianBlur stdDeviation="7"/>
<feComposite in2="hardAlpha" operator="arithmetic" k2="-1" k3="1"/>
<feColorMatrix type="matrix" values="0 0 0 0 1 0 0 0 0 1 0 0 0 0 1 0 0 0 0.28 0"/>
<feBlend mode="normal" in2="shape" result="effect1_innerShadow_134_56"/>
<feColorMatrix in="SourceAlpha" type="matrix" values="0 0 0 0 0 0 0 0 0 0 0 0 0 0 0 0 0 0 127 0" result="hardAlpha"/>
<feOffset dx="-4" dy="-4"/>
<feGaussianBlur stdDeviation="10.5"/>
<feComposite in2="hardAlpha" operator="arithmetic" k2="-1" k3="1"/>
<feColorMatrix type="matrix" values="0 0 0 0 0.121333 0 0 0 0 0.276889 0 0 0 0 0.466667 0 0 0 1 0"/>
<feBlend mode="normal" in2="effect1_innerShadow_134_56" result="effect2_innerShadow_134_56"/>
</filter>
<clipPath id="clip0_134_56">
<rect width="345.78" height="345.78" fill="white" transform="translate(385 41.826) rotate(96.7936)"/>
</clipPath>
</defs>
</svg>
